<?xml version="1.0" encoding="UTF-8" standalone="no"?>
<svg
   xmlns:dc="http://purl.org/dc/elements/1.1/"
   xmlns:cc="http://creativecommons.org/ns#"
   xmlns:rdf="http://www.w3.org/1999/02/22-rdf-syntax-ns#"
   xmlns:svg="http://www.w3.org/2000/svg"
   xmlns="http://www.w3.org/2000/svg"
   xmlns:sodipodi="http://sodipodi.sourceforge.net/DTD/sodipodi-0.dtd"
   xmlns:inkscape="http://www.inkscape.org/namespaces/inkscape"
   inkscape:version="1.0 (4035a4f, 2020-05-01)"
   sodipodi:docname="MFD_logo_simple.svg"
   id="svg2643"
   height="630.83728"
   width="633.12659"
   version="1.1">
  <metadata
     id="metadata2649">
    <rdf:RDF>
      <cc:Work
         rdf:about="">
        <dc:format>image/svg+xml</dc:format>
        <dc:type
           rdf:resource="http://purl.org/dc/dcmitype/StillImage" />
        <dc:title></dc:title>
      </cc:Work>
    </rdf:RDF>
  </metadata>
  <defs
     id="defs2647" />
  <sodipodi:namedview
     inkscape:deskcolor="#d1d1d1"
     inkscape:pagecheckerboard="0"
     inkscape:showpageshadow="2"
     inkscape:current-layer="svg2643"
     inkscape:window-maximized="0"
     inkscape:window-y="25"
     inkscape:window-x="52"
     inkscape:cy="273.73981"
     inkscape:cx="308.376"
     inkscape:zoom="0.35356135"
     fit-margin-bottom="0"
     fit-margin-right="0"
     fit-margin-left="0"
     fit-margin-top="0"
     showgrid="false"
     id="namedview2645"
     inkscape:window-height="742"
     inkscape:window-width="1272"
     inkscape:pageshadow="2"
     inkscape:pageopacity="0"
     guidetolerance="10"
     gridtolerance="10"
     objecttolerance="10"
     borderopacity="1"
     bordercolor="#666666"
     pagecolor="#ffffff"
     inkscape:document-rotation="0" />
  <g
     transform="translate(-195.89809,-47.371248)"
     id="g3345" />
  <g
     transform="translate(-195.89809,-62.885675)"
     id="g3290">
    <path
       d="M 0,0 C 0.81581543,0.38961914 1.6316309,0.77923828 2.472168,1.1806641 13.873967,6.6794358 24.549224,13.099962 35.0625,20.125 c 0.559141,0.373415 1.118282,0.74683 1.694366,1.131561 17.123956,11.485522 32.900261,24.023059 47.410614,38.650177 1.589104,1.59989 3.188724,3.188706 4.789551,4.776856 C 95.413579,71.131389 101.36149,77.811738 107,85 c 0.48549,0.605859 0.97099,1.211719 1.47119,1.835937 C 115.17106,95.211433 121.23544,103.9606 127,113 c 0.36948,0.57911 0.73896,1.15822 1.11963,1.75488 23.37222,37.00514 39.63442,78.87431 46.19287,122.18262 0.23928,1.57842 0.23928,1.57842 0.4834,3.18872 4.70683,33.52707 4.40031,69.62559 -1.7959,102.87378 -0.1766,0.9929 -0.3532,1.9858 -0.53516,3.00879 C 162.36306,401.66214 135.7614,454.05541 98,496 c -0.497417,0.55381 -0.994834,1.10763 -1.507324,1.67822 C 87.211588,507.96702 77.692647,518.15835 67,527 c -0.504507,0.4183 -1.009014,0.8366 -1.528809,1.26758 C 20.570264,565.32212 -31.76619,589.42782 -89,600 c -0.927319,0.17934 -1.854639,0.35868 -2.810059,0.54346 -76.586831,14.26881 -160.199191,-9.1903 -223.640621,-52.20508 C -325.4414,541.43109 -334.87923,534.01288 -344,526 c -0.76828,-0.65742 -1.53656,-1.31484 -2.32812,-1.99219 -3.85248,-3.30842 -7.46972,-6.76845 -11.02344,-10.39453 -1.81051,-1.82147 -1.81051,-1.82147 -4.64844,-4.05078 -2.99606,-2.55914 -5.42631,-5.2286 -7.96875,-8.22266 -2.33257,-2.68694 -4.77577,-5.25295 -7.21875,-7.83984 -55.52796,-59.92536 -80.62309,-143.67717 -77.68359,-224.02344 C -453.02955,228.20707 -442.81091,187.28008 -425,150 c 0.31937,-0.67047 0.63873,-1.34095 0.96777,-2.03174 C -413.51682,126.06739 -401.10051,106.02368 -386,87 c 0.72703,-0.92168 1.45406,-1.843359 2.20313,-2.792969 14.54916,-18.134118 31.134,-36.173807 49.97314,-49.875 1.98887,-1.452649 3.95059,-2.938356 5.91357,-4.425781 C -249.68636,-28.71104 -144.74174,-45.7023 0,0 Z"
       fill="#0e5e92"
       transform="translate(651,89)"
       id="path2381" />
    <path
       d="m 0,0 c 0.02485982,4.5715292 0.04293526,9.1430185 0.05493164,13.7146 0.0050052,1.552741 0.01181137,3.105478 0.02050781,4.658203 0.01223362,2.241629 0.01782712,4.483196 0.0222168,6.724853 0.0051613,0.685706 0.01032257,1.371412 0.01564026,2.077896 C 0.11379606,31.541758 -0.34833052,35.688628 -1,40 c -0.7126816,0.0033 -1.4253632,0.0066 -2.1596413,0.01003 -17.3344577,0.08119 -34.6688237,0.17327 -52.0031587,0.277496 -8.382726,0.05014 -16.765443,0.09658 -25.148235,0.134348 -7.30573,0.03292 -14.611384,0.07276 -21.917035,0.120915 -3.86892,0.02526 -7.73779,0.04704 -11.60678,0.06055 -3.64106,0.01282 -7.28195,0.03488 -10.92292,0.06404 -1.97444,0.0134 -3.94894,0.017 -5.92343,0.02031 -1.17506,0.01116 -2.35013,0.02233 -3.5608,0.03383 -1.53202,0.0083 -1.53202,0.0083 -3.09499,0.01676 -2.74492,0.269762 -4.35349,0.784102 -6.66301,2.261713 -3.15295,3.941184 -3.53255,7.029504 -3,12 1.6985,3.821624 3.14141,5.48523 7,7 2.68012,0.309522 2.68012,0.309522 5.6441,0.278473 1.14983,0.01116 2.29965,0.02233 3.48432,0.03383 1.25732,0.0022 2.51464,0.0043 3.81006,0.0065 1.34048,0.0093 2.68095,0.01947 4.02142,0.03044 3.636,0.0273 7.27196,0.04245 10.90803,0.05543 3.80105,0.01563 7.60202,0.04242 11.40301,0.06803 7.196357,0.04679 14.392733,0.08353 21.589169,0.116673 8.193456,0.03822 16.386833,0.08763 24.580222,0.137984 C -37.706503,62.830727 -20.853292,62.919987 -4,63 c -0.7901655,3.057245 -1.5856538,6.113081 -2.3820801,9.168701 -0.3340019,1.292694 -0.3340019,1.292694 -0.6747513,2.611504 -1.4896438,5.701516 -3.1302546,11.18181 -5.6306686,16.532295 -0.336123,0.733074 -0.672246,1.466147 -1.018555,2.221436 C -24.677108,116.54865 -44.760942,133.345 -65,148 c -0.896462,0.65839 -0.896462,0.65839 -1.811035,1.33008 -1.61291,1.17822 -3.244191,2.33117 -4.876465,3.48242 -0.911367,0.64582 -1.822734,1.29164 -2.761719,1.95703 C -77.623286,156.30067 -78.65978,155.97254 -82,155 c -2.564453,-1.40771 -2.564453,-1.40771 -5.28125,-3.21094 -1.500831,-0.99326 -1.500831,-0.99326 -3.031982,-2.00659 -1.051634,-0.71196 -2.103267,-1.42393 -3.186768,-2.15747 -1.080637,-0.72808 -2.161274,-1.45616 -3.274658,-2.2063 C -109.78731,136.54942 -121.24993,126.50662 -132,115 c 0,-0.33 0,-0.66 0,-1 1.15401,-0.006 2.30802,-0.0117 3.49699,-0.0178 10.87381,-0.0572 21.74743,-0.12995 32.621032,-0.21793 5.590283,-0.0447 11.180493,-0.084 16.770894,-0.11073 5.394742,-0.026 10.789203,-0.0664 16.183771,-0.11675 2.058445,-0.0167 4.116939,-0.0282 6.175442,-0.0344 2.882679,-0.01 5.764634,-0.0377 8.647135,-0.07 0.851642,0.001 1.703284,0.003 2.580734,0.004 4.650128,-0.0739 7.764566,-0.40044 11.524002,-3.43672 2.014716,-3.02207 2.33719,-3.91727 2.4375,-7.375 0.03996,-0.75023 0.07992,-1.50047 0.121094,-2.27344 C -32.328855,96.615588 -33.957599,95.321734 -37,93 c -3.52527,-0.70898 -6.986004,-0.598097 -10.570068,-0.516602 -1.063985,0.004 -2.127971,0.0079 -3.224198,0.01204 -2.307592,0.01121 -4.61515,0.03358 -6.922544,0.0658 -3.652734,0.04853 -7.304118,0.06269 -10.957155,0.06699 -10.384127,0.01793 -20.76744,0.09401 -31.150986,0.203308 -6.353729,0.06448 -12.706419,0.08539 -19.060459,0.07984 -2.4206,0.007 -4.84122,0.03105 -7.26148,0.07256 -3.38577,0.05749 -6.76751,0.05989 -10.15365,0.05024 -0.99915,0.03086 -1.99831,0.06172 -3.02774,0.09352 -6.65438,-0.09739 -6.65438,-0.09739 -9.60257,-3.083168 C -150.48496,87.753296 -151.7817,85.483779 -153,83 c -0.58008,-1.103437 -1.16016,-2.206875 -1.75781,-3.34375 C -159.77725,68.068526 -162.56585,56.399084 -164,43.875 c -0.83172,-6.812873 -1.93243,-11.078101 -7.125,-15.8125 -4.33082,-1.60052 -8.31749,-1.71253 -12.875,-1.0625 -3.62885,1.715458 -5.4461,3.279926 -7.875,6.4375 -6.33249,20.052891 3.98959,46.096707 13.0625,63.949219 8.18668,15.542131 18.62802,29.016351 30.8125,41.613281 0.46874,0.49452 0.93747,0.98903 1.42041,1.49854 12.12165,12.77797 25.99963,22.71206 40.57959,32.50146 -3.895,4.12855 -8.10225,7.4201 -12.6875,10.75 -5.66872,4.1798 -11.05118,8.49478 -16.21094,13.30078 -1.88084,1.7445 -3.80774,3.3839 -5.78906,5.01172 -3.86127,3.29291 -7.07849,7.03848 -10.3125,10.9375 -0.92426,1.09248 -0.92426,1.09248 -1.86719,2.20703 -17.85177,21.61571 -30.30364,46.44155 -30.32031,74.91797 -0.0122,1.07766 -0.0245,2.15531 -0.0371,3.26562 -0.056,30.99054 16.2536,60.37083 37.51025,82.14844 4.71841,4.7069 9.62614,9.16104 14.71436,13.46094 1.01097,0.87436 2.02134,1.74941 3.03125,2.625 6.40894,5.52625 12.89817,10.69852 19.96875,15.375 -1.54539,4.14618 -4.24097,5.93242 -7.75,8.5 -29.59342,22.14115 -53.07917,49.41315 -64.5,85.0625 -0.23421,0.73058 -0.46841,1.46115 -0.70972,2.21387 -3.67082,12.0088 -5.5649,24.11832 -6.72778,36.59863 -0.13012,1.33341 -0.26098,2.66674 -0.39258,4 -0.3138,3.20771 -0.62033,6.41593 -0.91992,9.625 -27.72132,-11.28366 -50.86596,-26.35131 -73.91479,-45.31152 -1.44712,-1.17179 -2.90947,-2.32491 -4.38331,-3.46289 -7.04365,-5.47083 -13.3664,-11.53483 -19.6394,-17.85059 -0.52853,-0.52968 -1.05705,-1.05937 -1.60159,-1.6051 C -296.33078,476.94442 -303.54803,468.97209 -310,460 c -0.74379,-0.96035 -1.48758,-1.9207 -2.25391,-2.91016 C -329.6282,434.63923 -342.95986,409.50104 -353,383 c -0.32694,-0.86093 -0.65388,-1.72187 -0.99072,-2.60889 C -370.94973,334.82761 -375.07905,282.95741 -367,235 c 0.24943,-1.52536 0.24943,-1.52536 0.50391,-3.08154 C -357.24043,176.92441 -332.23997,126.27869 -295,85 c 0.57541,-0.638569 1.15081,-1.277139 1.74365,-1.935059 12.02959,-13.278724 24.78494,-24.804512 39.15869,-35.498046 1.95047,-1.456945 3.88512,-2.93234 5.81641,-4.414551 C -224.34337,24.949548 -198.31847,13.621219 -170,4 c 0.80067,-0.2785986 1.60134,-0.5571973 2.42627,-0.8442383 15.87203,-5.5169752 32.52326,-8.5984863 49.13623,-10.9057617 1.24548,-0.1732983 1.24548,-0.1732983 2.51611,-0.3500977 C -77.203062,-13.108022 -37.579793,-10.432443 0,0 Z"
       fill="#fbfbfb"
       transform="translate(591,93)"
       id="path2383" />
    <path
       d="M 0,0 C 31.422397,9.9847679 60.55498,30.90023 84.667969,52.886719 86.750347,54.773765 88.865031,56.610582 91,58.4375 98.5871,65.058969 105.48844,72.331429 112,80 c 0.80953,0.920391 1.61906,1.840781 2.45313,2.789062 C 127.13883,97.312072 137.41937,113.30193 147,130 c 0.3814,0.66209 0.7628,1.32419 1.15576,2.00635 C 165.55733,162.51725 176.26372,197.2831 181,232 c 0.25596,1.79425 0.25596,1.79425 0.51709,3.62476 1.51038,11.16651 1.80244,22.18059 1.73291,33.43774 -0.003,0.89658 -0.006,1.79317 -0.009,2.71692 C 182.94275,345.38171 156.90674,416.19068 106,470 c -0.89396,0.99049 -1.78456,1.98402 -2.67187,2.98047 -10.178663,11.406 -21.337185,21.37923 -33.502446,30.62207 -1.846509,1.4134 -3.670651,2.85235 -5.493653,4.2959 C 53.517108,516.35962 41.936948,523.24623 30,530 c -0.668218,0.3864 -1.336436,0.77279 -2.024902,1.1709 C -4.0971703,549.70928 -39.542027,559.24159 -76,564 c -0.660544,0.087 -1.321088,0.17389 -2.001648,0.26347 -5.794329,0.71003 -11.523303,0.92637 -17.357727,0.97481 -0.974788,0.01 -1.949576,0.0194 -2.953903,0.0294 -3.145612,0.0249 -6.291022,0.0375 -9.436722,0.0448 -1.07291,0.003 -2.14583,0.005 -3.25125,0.008 -23.23801,0.006 -45.5088,-2.21422 -67.99875,-8.32043 -1.1434,-0.30293 -2.2868,-0.60586 -3.46484,-0.91797 -2.51739,-0.67617 -5.02711,-1.3724 -7.53516,-2.08203 -0.0291,-3.58332 -0.0468,-7.1666 -0.0625,-10.75 -0.008,-1.01578 -0.0168,-2.03156 -0.0254,-3.07813 -0.003,-0.97968 -0.006,-1.95937 -0.01,-2.96875 -0.005,-0.90073 -0.0105,-1.80146 -0.0159,-2.72949 0.10634,-2.31697 0.51804,-4.24417 1.11353,-6.47363 0.68507,-10e-4 1.37014,-0.003 2.07597,-0.004 16.67595,-0.0371 33.35167,-0.0961 50.02745,-0.17946 8.06432,-0.0398 16.12855,-0.0722 24.19297,-0.0871 7.02966,-0.013 14.059117,-0.04 21.088663,-0.0836 3.721501,-0.0226 7.442737,-0.0383 11.164313,-0.0373 4.156537,8.8e-4 8.312293,-0.0294 12.4687,-0.0622 1.231428,0.005 2.462855,0.0101 3.731598,0.0152 8.437088,-0.0891 8.437088,-0.0891 15.250336,-4.56114 1.212609,-3.63783 1.395446,-6.17736 1,-10 -2.541372,-3.15954 -4.146227,-4.71541 -8,-6 -1.750535,-0.10183 -3.504649,-0.14629 -5.258102,-0.15822 -1.08955,-0.01 -2.1791,-0.0196 -3.301667,-0.0297 -1.793189,-0.009 -1.793189,-0.009 -3.622604,-0.0174 -1.258649,-0.01 -2.517297,-0.0198 -3.814087,-0.03 -3.452171,-0.027 -6.904356,-0.0481 -10.356575,-0.068 -3.607511,-0.0219 -7.214979,-0.0493 -10.822456,-0.0761 -6.831619,-0.0499 -13.663259,-0.0949 -20.494919,-0.13802 -7.77746,-0.0494 -15.55488,-0.1043 -23.33229,-0.15968 C -153.00176,506.20911 -169.00086,506.10227 -185,506 c 0.31425,-1.44896 0.6306,-2.89746 0.94785,-4.34576 0.26391,-1.21003 0.26391,-1.21003 0.53316,-2.4445 0.54029,-2.30043 1.23407,-4.40527 2.18305,-6.56912 0.46962,-1.07471 0.46962,-1.07471 0.94873,-2.17114 0.33403,-0.73243 0.66806,-1.46486 1.01221,-2.21948 0.35336,-0.78077 0.70673,-1.56154 1.0708,-2.36597 C -166.0899,459.4811 -145.59689,438.57415 -122,422 c 0.8619,-0.61367 0.8619,-0.61367 1.74121,-1.23975 8.25418,-5.82254 8.25418,-5.82254 11.21191,-5.63916 C -90.8306,422.94297 -73.242696,440.59386 -60,455 c 0,0.33 0,0.66 0,1 -1.026507,0.004 -2.053013,0.007 -3.110626,0.0111 -9.681543,0.037 -19.362768,0.0948 -29.04407,0.17285 -4.977093,0.0395 -9.954014,0.0717 -14.931244,0.0871 -4.8048,0.0152 -9.60911,0.0496 -14.41369,0.0973 -1.83153,0.0148 -3.66314,0.0227 -5.49473,0.0236 -2.56897,0.002 -5.1366,0.0294 -7.70535,0.0622 -0.75454,-0.005 -1.50908,-0.0101 -2.28648,-0.0152 -5.13175,0.10104 -8.07223,1.30444 -12.01381,4.56114 -2.11213,3.16819 -2.33156,5.13219 -2.55859,8.86719 0.92867,3.54585 2.68711,4.89627 5.55859,7.13281 3.33738,0.7435 6.6144,0.69053 10.02271,0.65942 1.00534,0.0105 2.01069,0.021 3.0465,0.0318 3.31709,0.0288 6.63313,0.0225 9.95032,0.0158 2.30215,0.0131 4.60429,0.0284 6.90642,0.0458 6.05481,0.0399 12.10933,0.05 18.16426,0.054 6.180309,0.009 12.360442,0.0467 18.540649,0.0818 12.123039,0.0646 24.245945,0.0978 36.369141,0.11133 1.114556,2.1882 2.224504,4.37855 3.332031,6.57031 0.467024,0.9152 0.467024,0.9152 0.943482,1.84888 5.904822,11.71672 8.482026,23.46443 10.293579,36.36938 0.946125,7.08244 0.946125,7.08244 4.430908,13.21143 4.495977,3.03217 8.703978,3.95138 14,3 4.4765964,-2.28053 6.8460339,-4.494 9,-9 0.32233032,-2.70932 0.47630045,-5.11002 0.4375,-7.8125 -0.007573,-0.74701 -0.0151465,-1.49402 -0.0229492,-2.26367 C -0.81669158,511.90968 -2.6239101,504.61725 -5,497 -5.1930371,496.34628 -5.3860742,495.69257 -5.5849609,495.01904 -10.79882,477.55818 -19.420845,460.10986 -31,446 c -0.635508,-0.83402 -1.271016,-1.66805 -1.925781,-2.52734 C -42.706236,430.92936 -54.412742,419.6852 -67,410 c -1.901222,-1.47519 -3.800153,-2.95323 -5.696777,-4.43433 -1.262294,-0.98404 -2.528126,-1.96356 -3.797852,-2.93798 C -80.889542,399.22092 -80.889542,399.22092 -82,397 c 1.027383,-0.76184 2.054766,-1.52367 3.113281,-2.30859 C -67.134242,385.94746 -55.74998,376.97309 -45,367 c 0.653555,-0.58781 1.307109,-1.17563 1.980469,-1.78125 C -24.62214,347.92141 -12.10205,324.27697 -6,300 c 0.1750708,-0.58258 0.3501416,-1.16515 0.5305176,-1.76538 C -2.4331385,283.78238 -3.5831197,263.61348 -9,250 c -0.350625,-0.98484 -0.70125,-1.96969 -1.0625,-2.98438 -6.920023,-18.16505 -18.229798,-33.26755 -31.414062,-47.30468 -2.097629,-2.25349 -4.104029,-4.54434 -6.085938,-6.89844 C -57.189757,181.84191 -69.310469,173.60125 -81,165 c 1.306272,-2.99707 2.50307,-4.67433 5.167969,-6.55859 0.638811,-0.46189 1.277622,-0.92378 1.935791,-1.39966 1.031451,-0.73223 1.031451,-0.73223 2.08374,-1.47925 5.82272,-4.24776 11.437268,-8.64302 16.875,-13.375 0.593855,-0.51426 1.18771,-1.02851 1.799561,-1.55835 C -22.204801,113.47291 -4.4505268,73.423274 -1.1630859,32.636719 -0.49120519,21.773976 -0.26134189,10.878622 0,0 Z"
       fill="#fbfbfb"
       transform="translate(621,103)"
       id="path2385" />
    <path
       d="M 0,0 C 2.5984095,1.3091683 5.0451068,2.8157194 7.5,4.375 8.2005249,4.8161816 8.9010498,5.2573633 9.6228027,5.7119141 16.617361,10.223305 22.793488,15.480203 29,21 c 1.39355,1.148609 2.788911,2.295031 4.1875,3.4375 2.524509,2.300108 3.471492,3.569065 4.8125,6.5625 -1.145126,0.0055 -1.145126,0.0055 -2.313385,0.01105 -7.209325,0.03793 -14.418137,0.09484 -21.627131,0.172856 -3.70588,0.03944 -7.4115248,0.07164 -11.1175895,0.08709 -3.57942877,0.01519 -7.1582077,0.04968 -10.7373466,0.09731 -1.3626159,0.01479 -2.7253249,0.02273 -4.0880199,0.02358 C -21.81661,31.167347 -21.81661,31.167347 -30,36 c -1.608472,3.216944 -1.613091,6.521372 -1,10 2.175744,2.691052 3.910659,4.455329 7,6 2.526956,0.0651 5.025678,0.07014 7.551514,0.03076 1.615083,-0.01611 3.23017,-0.0318 4.84526,-0.04715 1.287792,-0.01431 1.287792,-0.01431 2.601599,-0.0289 5.495321,-0.0515 10.9909466,-0.04578 16.4864702,-0.05136 4.8306958,-0.0082 9.6597798,-0.03597 14.4900108,-0.105497 4.671445,-0.06613 9.340319,-0.07847 14.01214,-0.05474 1.777834,-6.1e-4 3.555775,-0.02066 5.333156,-0.06077 13.922457,-0.298078 13.922457,-0.298078 18.301524,3.728016 C 61.437243,58.220283 62.769807,60.895863 64,64 c 0.623906,1.153711 1.247812,2.307422 1.890625,3.496094 C 73.695483,84.384191 76.310779,103.06532 70,121 c -4.673428,10.67343 -4.673428,10.67343 -7,13 -1.342037,0.0987 -2.689191,0.12907 -4.034851,0.1313 -0.869221,0.004 -1.738442,0.008 -2.634003,0.0121 -0.961026,-5.3e-4 -1.922052,-0.001 -2.912201,-0.002 -1.006486,0.003 -2.012971,0.007 -3.049957,0.0105 -2.194084,0.007 -4.388175,0.0127 -6.582268,0.0163 -3.471225,0.007 -6.942308,0.0228 -10.41349,0.0414 -9.872437,0.0526 -19.744797,0.10045 -29.6173706,0.11592 -6.031327,0.0101 -12.062297,0.0394 -18.0934834,0.0813 -2.301277,0.0123 -4.602605,0.0174 -6.903915,0.0152 -3.220331,-0.002 -6.439636,0.0198 -9.659828,0.0475 -0.95293,-0.007 -1.905859,-0.0132 -2.887665,-0.02 -4.263968,0.0604 -6.589583,0.16365 -10.279633,2.45816 -2.530856,2.74122 -2.89607,3.6246 -3.181335,7.40437 0.270266,3.98643 0.71288,5.64296 3.25,8.6875 4.740357,2.94373 8.845594,3.44275 14.300293,3.43237 0.810422,0.0102 1.620845,0.0204 2.455826,0.0309 2.662094,0.03 5.323827,0.0394 7.986069,0.0485 1.852317,0.0169 3.704622,0.035 5.556915,0.0544 4.8628074,0.0474 9.7255688,0.0773 14.58853128,0.10344 4.96723552,0.0298 9.93431172,0.0764 14.90142872,0.12146 9.736895,0.086 19.473824,0.15333 29.210937,0.20898 -6.443053,13.39567 -22.004999,23.77187 -34,32 -0.621328,0.43409 -1.2426562,0.86818 -1.8828125,1.31543 -1.7523858,1.21269 -3.5215967,2.39262 -5.3046875,3.55957 -1.0041797,0.65742 -2.0083594,1.31484 -3.04296875,1.99219 C -2,197 -2,197 -4.453125,196.44922 c -3.0918097,-1.7593 -6.130372,-3.56882 -9.109375,-5.51172 -0.611338,-0.39703 -1.222676,-0.79406 -1.852539,-1.20313 C -42.770371,171.77137 -69.464921,146.88658 -77.3125,113.9375 -78,110 -78,110 -78,106 c 0.942567,-0.004 0.942567,-0.004 1.904177,-0.007 15.298976,-0.0592 30.597777,-0.13473 45.896576,-0.22847 7.398432,-0.045 14.796817,-0.0844 22.1953407,-0.11073 6.4495315,-0.023 12.898911,-0.0564 19.3483223,-0.10226 3.414058,-0.0239 6.827965,-0.0427 10.242105,-0.0489 3.813998,-0.01 7.627447,-0.0376 11.441311,-0.07 1.128569,10e-4 2.257138,0.003 3.419907,0.004 C 41.990419,105.3701 46.294395,105.28751 51,102 c 2.667736,-4.001604 2.714788,-7.294311 2,-12 -1.876206,-2.501608 -3.238913,-3.619457 -6,-5 -1.634196,-0.10457 -3.272569,-0.146546 -4.910065,-0.158218 -1.03769,-0.0098 -2.07538,-0.01958 -3.144516,-0.02966 -1.14295,-0.0058 -2.2859,-0.01151 -3.463485,-0.01744 -1.799972,-0.01485 -1.799972,-0.01485 -3.636307,-0.03 -3.295226,-0.02622 -6.590427,-0.04807 -9.885693,-0.068 C 18.51791,84.674832 15.07593,84.647436 11.633942,84.620621 5.1139529,84.570673 -1.4060604,84.525742 -7.9260973,84.482598 -15.348039,84.433243 -22.769936,84.378319 -30.191835,84.322919 -45.461182,84.209067 -60.73057,84.102235 -76,84 c 0.128677,-1.579672 0.265844,-3.158654 0.406494,-4.737305 0.07546,-0.879362 0.150911,-1.758724 0.228653,-2.664734 0.558326,-3.975597 2.025961,-7.278495 3.802353,-10.847961 0.351995,-0.724534 0.703989,-1.449067 1.06665,-2.195557 C -64.735338,52.092393 -56.873502,42.214221 -48,33 c 0.864961,-0.904922 1.729922,-1.809844 2.621094,-2.742188 C -39.276882,24.008647 -32.893147,18.358158 -26,13 c 1.00418,-0.786328 2.008359,-1.572656 3.042969,-2.382812 C -6.4000469,-2.0995837 -6.4000469,-2.0995837 0,0 Z"
       fill="#fbfbfa"
       transform="translate(515,286)"
       id="path2387" />
    <path
       d="m 0,0 c 21.779958,12.424306 31.225138,33.634868 39.904053,55.980713 2.749383,7.014362 5.851392,13.450807 9.517822,20.031006 C 60.338046,96.141683 72.558788,121.11415 66.375,144.5625 62.079863,156.489 54.529338,163.53763 43.234375,168.89844 34.323179,172.7808 22.253183,172.29747 13,169.5 7.3771508,167.28659 2.9527873,164.18157 -1.4375,160.0625 c -0.6264844,-0.58523 -1.2529688,-1.17047 -1.8984375,-1.77344 -10.1415235,-10.49581 -13.3126705,-25.46607 -16.5039065,-39.25 -0.253301,-1.08507 -0.506601,-2.17013 -0.767578,-3.28808 -0.497869,-2.1492 -0.985485,-4.30081 -1.460937,-6.45508 C -24.91951,96.889857 -29.932795,86.736866 -36.875,76.125 -46.586413,60.936495 -53.97195,47.667702 -52.4375,29.0625 -49.930901,17.754322 -43.164981,7.6596085 -33.4375,1.375 -23.179678,-4.9740952 -10.805882,-5.1185755 0,0 Z"
       fill="#1a81be"
       transform="translate(672.4375,211.9375)"
       id="path2389" />
    <path
       d="m 0,0 c 10.642999,6.6080162 18.216718,14.94947 21.66333,27.21167 2.991623,13.461525 -0.333239,27.343402 -4.530518,40.112549 -0.344904,1.061784 -0.344904,1.061784 -0.696777,2.145019 -9.1593548,27.58178 -26.862851,54.461752 -53.303222,67.854982 -9.420604,4.41396 -21.540936,4.60054 -31.546875,2.12109 -9.627341,-3.70188 -16.923337,-9.80316 -21.453125,-19.12109 -6.454958,-16.12389 -3.958076,-30.476831 2.691406,-46.097658 12.116605,-27.072531 28.53538,-63.282513 57.308594,-75.9023432 C -21.154393,-4.5800462 -8.203172,-4.0730035 0,0 Z"
       fill="#1b84c1"
       transform="translate(706.86719,419.67578)"
       id="path2391" />
    <path
       d="M 0,0 C 5.4621457,3.0319537 7.8681162,6.9750076 9.5898438,12.851563 10,15 10,15 10,19 c 4.95,0 9.9,0 15,0 -0.06188,-1.52625 -0.12375,-3.0525 -0.1875,-4.625 0.0078,-5.5412709 1.073343,-9.1879411 5,-13.25 C 32.777341,-0.39977526 34.701568,-0.40388958 38,0 c 3.802962,1.7286192 5.439512,3.1684448 7,7 0.851332,6.435072 -0.539502,12.753762 -2,19 0.770859,0.482109 1.541719,0.964219 2.335937,1.460937 1.002891,0.631641 2.005782,1.263282 3.039063,1.914063 0.997734,0.626484 1.995469,1.252969 3.023437,1.898437 C 54,33 54,33 56,35 60.009302,34.787643 61.874154,32.372695 64.5,29.5625 69.430724,24.302498 69.430724,24.302498 73,23 c 4.000227,0.142865 6.243327,0.382714 9.375,2.9375 2.736929,3.473795 3.049821,5.644357 2.625,10.0625 -2.824753,5.77232 -7.698497,9.540718 -13,13 -0.66,0 -1.32,0 -2,0 0.421523,0.892031 0.843047,1.784062 1.277344,2.703125 0.547851,1.170469 1.095703,2.340938 1.660156,3.546875 0.545273,1.160156 1.090547,2.320312 1.652344,3.515625 C 75.664483,61.230448 76.487801,63.380652 77,66 c 1.75377,-0.05221 1.75377,-0.05221 3.542969,-0.105469 1.548162,-0.02815 3.096341,-0.05545 4.644531,-0.08203 0.768926,-0.02514 1.537852,-0.05027 2.330078,-0.07617 C 92.188123,65.676192 95.219575,65.945758 99,69 c 2.50032,3.750475 2.53604,5.558563 2,10 -2.4375,2.875 -2.4375,2.875 -5,5 -0.33,0.33 -0.66,0.66 -1,1 -2.862676,0.07325 -5.700719,0.09238 -8.5625,0.0625 C 85.631191,85.058 84.824883,85.0535 83.994141,85.04883 81.996062,85.037005 79.998022,85.019069 78,85 c -0.132773,1.216875 -0.265547,2.43375 -0.402344,3.6875 -0.4076,3.260804 -1.044911,6.20921 -2.160156,9.3125 -0.269414,0.763125 -0.538828,1.52625 -0.816406,2.3125 C 74.416133,100.86938 74.211172,101.42625 74,102 c 0.638086,0.62648 1.276172,1.25297 1.933594,1.89844 0.826289,0.81726 1.652578,1.63453 2.503906,2.47656 0.823711,0.81211 1.647422,1.62422 2.496094,2.46094 2.639386,2.76412 3.015857,3.62825 3.378906,7.47656 -0.361259,4.26286 -1.332421,5.70742 -4.3125,8.6875 -2.866081,1.43304 -4.813008,1.30644 -8,1 -6.266867,-2.93343 -9.331499,-8.31274 -13,-14 -0.99,0.165 -1.98,0.33 -3,0.5 -6.821186,0.94892 -12.449088,0.68364 -19,-1.5 -0.127617,0.7193 -0.255234,1.43859 -0.386719,2.17969 -0.604019,2.77772 -1.407952,5.29328 -2.425781,7.94531 -0.31582,0.8482 -0.631641,1.69641 -0.957031,2.57031 C 31.810613,126.35472 30.614604,127.51839 28,129 c -4.837254,0 -7.012035,-0.32077 -11,-3.0625 -2.062177,-3.02882 -2.71087,-4.94938 -2.515625,-8.61719 0.866924,-3.90115 2.727526,-7.30531 4.617187,-10.80468 1.132144,-2.41966 1.132144,-2.41966 0.351563,-4.57422 C 17.593807,99.457317 15.534411,97.642912 13.125,95.6875 12.261328,94.969492 11.397656,94.251484 10.507813,93.511719 8.1952991,91.805138 8.1952991,91.805138 5.953125,92.078125 3.624695,93.177144 1.6925333,94.528173 -0.375,96.0625 -3.2183303,97.996897 -4.8305754,98.967418 -8.25,99.625 -11.701456,98.840578 -13.478641,97.44932 -16,95 -17.608592,91.782817 -17.458047,88.48924 -17,85 -14.195258,79.756352 -9.1345091,77.578226 -4,75 -4.28875,74.319375 -4.5775,73.63875 -4.875,72.9375 -6.8099347,67.88517 -8.1299561,63.421027 -8,58 c -1.0132031,0.0348 -2.026406,0.06961 -3.070313,0.105469 -1.351545,0.02816 -2.703109,0.05546 -4.054687,0.08203 -0.665156,0.02514 -1.330313,0.05027 -2.015625,0.07617 C -21.874312,58.333285 -24.987857,57.49194 -29,55 c -2.381642,-2.842605 -3,-4.284053 -3,-8 1.310437,-3.931311 2.711359,-5.460131 6,-8 3.130951,-0.598768 6.139602,-0.475277 9.3125,-0.3125 1.253936,0.03384 1.253936,0.03384 2.533203,0.06836 C -12.102089,38.81449 -10.050808,38.904168 -8,39 c 0.7042966,-1.387434 1.387776,-2.785446 2.0625,-4.1875 0.5742773,-1.165957 0.5742773,-1.165957 1.1601563,-2.355469 C -3.8247598,29.4461 -3.9962815,27.983145 -5,25 -6.5831514,22.589366 -6.5831514,22.589366 -8.5,20.25 -11.429031,16.189298 -13.124673,13.019889 -13.347656,7.9804687 -12.744129,4.5423997 -10.69472,3.0053728 -8,1 -5.0420628,-0.47896861 -3.2977978,-0.4355582 0,0 Z"
       fill="#126a9e"
       transform="translate(307,432)"
       id="path2393" />
    <path
       d="m 0,0 c 8.7109441,3.1298464 14.012356,7.9412279 18.375,16 3.289001,8.098129 2.734716,17.693834 0,25.875 -6.177912,14.559136 -15.5500893,21.319107 -29.875,27.3125 -2.365253,1.012761 -4.729853,2.027047 -7.09375,3.042969 -1.107224,0.474294 -2.214448,0.948589 -3.355225,1.437256 C -28.123548,76.363943 -33.551224,78.742355 -38,84 c -2.630105,7.890315 -0.7194,15.181613 2.1875,22.6875 0.642825,1.74446 1.284744,3.48926 1.925781,5.23438 0.319204,0.854 0.638408,1.708 0.967285,2.58789 1.336272,3.61921 2.575897,7.26749 3.794434,10.92773 0.389297,1.15371 0.778594,2.30742 1.179688,3.49609 1.942921,6.30246 2.191979,12.2013 2.257812,18.75391 0.04351,1.41442 0.04351,1.41442 0.08789,2.85742 0.10761,12.0441 -5.338081,22.79959 -13.396485,31.64649 -11.647102,10.92049 -28.756756,21.19723 -45.066406,21.12109 -0.69416,0.0161 -1.38832,0.0322 -2.103516,0.0488 C -90.636203,203.36557 -93.45518,202.74691 -97,200 c -3.52461,-4.98307 -3.84584,-10.09832 -3,-16 2.671394,-5.77021 7.132978,-8.55601 12.939209,-10.72412 1.990638,-0.62831 3.989078,-1.20993 5.998291,-1.77588 13.329768,-3.87651 13.329768,-3.87651 23.097656,-13.21094 4.639025,-10.57266 1.268845,-20.73515 -2.269043,-31.04443 C -73.387528,88.705886 -73.387528,88.705886 -66,72 -57.099188,55.196864 -41.514233,46.817625 -24.24707,40.788818 -19.539077,39.119979 -15.572996,37.653206 -12,34 -10.797811,28.109275 -13.24042,23.848197 -15.90625,18.746094 -17.163113,15.590471 -17.304224,13.369517 -17,10 -13.280899,2.8478835 -8.2325665,-1.234885 0,0 Z"
       fill="#1b85c3"
       transform="translate(357,183)"
       id="path2395" />
    <path
       d="m 0,0 c 5.002302,2.4556755 8.4985154,5.9970307 11,11 0.590577,5.678629 0.293709,10.169227 -3,15 -4.0034639,4.036279 -7.58591754,6.124581 -13.3125,6.3125 -5.490268,-0.05356 -8.429087,-2.365592 -12.5,-5.875 -3.125251,-3.783199 -2.513455,-8.855684 -2.46875,-13.488281 C -19.902709,8.9797965 -18.692625,6.9109457 -16,4 -14.979063,2.824375 -14.979063,2.824375 -13.9375,1.625 -9.3938167,-0.88852692 -5.0729033,-0.73855504 0,0 Z"
       fill="#1b86c4"
       transform="translate(384,279)"
       id="path2457" />
    <path
       d="m 0,0 c 3.9856115,2.6268803 6.2398053,5.2819159 7.75,9.8125 0.5861042,5.978263 -0.6614021,10.118816 -4,15 -3.55391412,3.240333 -7.8026189,3.901658 -12.4921875,4.265625 C -12.425549,28.687987 -14.273055,27.071416 -16.875,24.550781 -20.612439,19.825894 -20.730319,15.638402 -20.636719,9.734375 -20.045846,5.2700062 -18.629042,3.7307639 -15.25,0.8125 -10.754707,-2.5977221 -4.9896122,-1.8231275 0,0 Z"
       fill="#1b85c2"
       transform="translate(356.25,382.1875)"
       id="path2461" />
    <path
       d="m 0,0 c 3.8881579,3.2401316 3.8881579,3.2401316 4.625,6.1875 -0.1795394,5.65549 -0.7366931,8.973543 -5,13 -3.969814,2.253138 -7.4968017,2.621131 -12,2 -3.269277,-2.114651 -6.241844,-4.483688 -8,-8 -0.465813,-4.6581276 -0.750499,-7.6381824 2.25,-11.375 C -12.267786,-3.7784775 -7.0895731,-3.8073633 0,0 Z"
       fill="#1b86c4"
       transform="translate(757.375,400.8125)"
       id="path2471" />
    <path
       d="m 0,0 c 3.3749506,0.02428022 5.1442041,0.59958588 7.75,2.75 3.219828,3.29836 3.508681,3.8042669 3.8125,8.4375 -0.0557,3.836241 -0.755832,6.158868 -3.25,9.1875 -3.4407588,2.580569 -6.8279573,2.565701 -11,2 -3.0400128,-1.502263 -5.103037,-3.179589 -7,-6 -0.879886,-3.513939 -0.861562,-6.4834208 0,-10 2.4375,-3.0625 2.4375,-3.0625 5,-5 1,-1 1,-1 4.6875,-1.375 z"
       fill="#136ca1"
       transform="translate(655.6875,170.625)"
       id="path2477" />
    <path
       d="m 0,0 c 3.0219483,0.72824 4.8705566,2.054701 6.6054687,4.6601562 1.4827523,3.6509981 1.5618272,7.0764548 0.7773438,10.9140628 -1.7939367,2.870298 -2.9826328,4.491316 -6,6 -7.0895884,0.581114 -7.0895884,0.581114 -10.9375,-1.875 -2.7538675,-2.837319 -3.2667555,-4.513548 -3.4375005,-8.375 0.06374,-3.2878304 0.389787,-5.5680306 2.25,-8.3125002 C -6.9482914,0.05247977 -4.7205583,-0.31705242 0,0 Z"
       fill="#11699e"
       transform="translate(704.61719,195.42578)"
       id="path2479" />
    <path
       d="m 0,0 c 3.4121353,2.1231064 5.7494874,4.1347794 7,8 0.5596024,3.147764 0.4850102,5.113786 -1.0625,7.941406 -1.9882799,2.674453 -3.6664335,4.660125 -6.90625,5.675781 C -4.947304,21.877324 -6.9404023,21.034675 -10.4375,19 -13.177511,15.792183 -14.008807,14.111364 -14.242188,9.9960938 -13.82987,6.5977995 -12.179919,4.5432391 -10,2 -6.2626144,-0.4915904 -4.4266842,-0.45793285 0,0 Z"
       fill="#12679c"
       transform="translate(734,252)"
       id="path2481" />
    <path
       d="m 0,0 c 4.5021067,0.78984328 5.9468188,1.8996358 8.5625,5.625 0.625,3.5 0.625,3.5 0,7 -2.4459889,3.38122 -3.8929656,4.769368 -8,5.625 -4.1070344,-0.855632 -5.5540111,-2.24378 -8,-5.625 C -8.1044483,8.4750997 -7.8489369,6.3985014 -5.875,2.6875 -3.4375,0.625 -3.4375,0.625 0,0 Z"
       fill="#278ec5"
       transform="translate(358.4375,507.375)"
       id="path2485" />
    <path
       d="M 0,0 C 3,2.5625 3,2.5625 5,6 5,9.5469368 4.640999,11.831119 2.9375,14.9375 -0.26760682,16.695139 -3.4943417,16.613667 -7,16 -9.5,14.5 -9.5,14.5 -11,12 -11.796693,7.9501447 -11.640993,5.0255888 -9.4375,1.5 -5.9798145,-0.62780647 -3.9874378,-0.69955049 0,0 Z"
       fill="#278fc5"
       transform="translate(338,482)"
       id="path2489" />
    <path
       d="m 0,0 c 2.6413157,0.53613298 3.813617,0.96184505 5.9375,2.6875 1.4274121,3.3901038 1.5197844,5.7365092 1,9.375 -2.0625,2.5 -2.0625,2.5 -5,4 C -1.5555579,16.002275 -3.9661649,15.699082 -7,13.9375 -8.7394388,10.867902 -8.4788501,8.5122582 -8.0625,5.0625 -6.0173024,0.97210478 -4.4976192,-0.33959924 0,0 Z"
       fill="#48afe3"
       transform="translate(707.0625,336.9375)"
       id="path2493" />
    <path
       d="M 0,0 C 3.1625965,0.771365 4.7334225,2.2502108 6.6757812,4.8359375 8.2584425,8.0291482 7.6140965,10.346493 6.5625,13.625 c -1.625,2 -1.625,2 -4,3 -3.625,-0.125 -3.625,-0.125 -7,-1 -2.4539633,-3.680945 -2.6969329,-6.7237576 -2,-11 C -4.497685,1.7512 -3.3425454,0.85706292 0,0 Z"
       fill="#49afe3"
       transform="translate(657.4375,234.375)"
       id="path2497" />
    <path
       d="M 0,0 C 2.5,1.5 2.5,1.5 4,4 4.3170682,7.9395728 3.8343184,10.980278 1.3125,14.0625 -1.8694499,15.35248 -3.738985,14.971366 -7,14 -8.875,12.9375 -8.875,12.9375 -10,11 -10.537588,7.4235434 -10.656709,4.2361577 -8.9375,1 -5.8209049,-0.60856522 -3.4373753,-0.42213381 0,0 Z"
       fill="#47aee3"
       transform="translate(682,310)"
       id="path2499" />
    <path
       d="M 0,0 C 0.33,0.66 0.66,1.32 1,2 0.67,2.99 0.34,3.98 0,5 c -0.52337883,4.9442204 -0.52337883,4.9442204 1.664402,9.19022 2.8974225,2.24512 4.3808658,2.31544 8.0176659,2.328762 1.1582381,0.01391 2.3164751,0.02783 3.5098111,0.04216 1.26667,-0.005 2.53334,-0.01006 3.838394,-0.01524 1.350339,0.0087 2.700667,0.01922 4.05098,0.03133 3.662952,0.02788 7.325566,0.03126 10.988608,0.03028 3.829106,0.0031 7.658058,0.02874 11.487085,0.05198 7.249513,0.04057 14.498936,0.0609 21.748546,0.07397 8.253946,0.01587 16.507739,0.05428 24.761597,0.09459 C 107.04468,16.91047 124.02225,16.96455 141,17 c 0,0.33 0,0.66 0,1 -17.90655,0.116799 -35.81299,0.204971 -53.719836,0.259061 -8.314465,0.02578 -16.628693,0.06093 -24.943006,0.118136 -7.246724,0.04984 -14.493277,0.08209 -21.740168,0.09324 -3.837316,0.0065 -7.674143,0.02184 -11.511302,0.05821 -3.612433,0.03396 -7.224173,0.0444 -10.83675,0.03689 -1.956482,0.002 -3.912889,0.02893 -5.869177,0.05656 C 2.8152083,18.565818 2.8152083,18.565818 -0.26472473,15.589523 -3.0428509,11.44377 -3.3476176,9.0404556 -3,4 -1.5,1.5625 -1.5,1.5625 0,0 Z"
       fill="#00336f"
       transform="translate(446,137)"
       id="path2501" />
    <path
       d="m 0,0 c 3.5,0.5 3.5,0.5 5.5,2 1.5352047,3.8380117 0.8464666,6.4630055 0,10.5 -2,2 -2,2 -5.4375,2.375 C -3.5,14.5 -3.5,14.5 -5.4375,12.875 -6.8022525,9.8243769 -6.9140702,7.8125618 -6.5,4.5 -4.8705593,0.85772081 -4.0002474,0.57146392 0,0 Z"
       fill="#4ab0e4"
       transform="translate(688.5,273.5)"
       id="path2503" />
    <path
       d="M 0,0 C 2.5,0.5 2.5,0.5 4.875,2.0625 6.5,4.5 6.5,4.5 6.375,8.125 5.5,11.5 5.5,11.5 3.5,13.5 -2.5524018,14.050218 -2.5524018,14.050218 -5.4375,12.375 -7.0299028,9.5648774 -6.9531932,7.6723528 -6.5,4.5 -4.5167701,1.7087875 -3.3701388,0.67402776 0,0 Z"
       fill="#51b6e7"
       transform="translate(647.5,523.5)"
       id="path2505" />
    <path
       d="M 0,0 C 1.8125,1.0625 1.8125,1.0625 3,3 3.3125,6.5625 3.3125,6.5625 3,10 1,12 1,12 -2.5,12.25 -6,12 -6,12 -8,10 -8.5541667,3.9041667 -8.5541667,3.9041667 -6.8125,1.0625 -4.3395091,-0.38718434 -2.8211549,-0.42317323 0,0 Z"
       fill="#51b5e8"
       transform="translate(707,469)"
       id="path2507" />
    <path
       d="M 0,0 C 2,2 2,2 2.3125,4.9375 2,8 2,8 0.8125,9.875 -1.6803638,11.422295 -3.1196733,11.504057 -6,11 -8.2741391,8.8826981 -8.9152211,7.4965619 -9.4375,4.4375 -9,2 -9,2 -7.3125,0.125 -4.3807765,-1.3012439 -3.0467345,-1.0423039 0,0 Z"
       fill="#4eb3e6"
       transform="translate(695,440)"
       id="path2513" />
    <path
       d="m 0,0 c 3.5625,0.1875 3.5625,0.1875 5.5625,2.1875 0.5518672,6.0705394 0.5518672,6.0705394 -1.1875,9 -1.8125,1 -1.8125,1 -4.375,0.8125 -2.4375,-0.8125 -2.4375,-0.8125 -4.4375,-2.8125 -0.3275223,-2.7145496 -0.1308425,-5.2523076 0,-8 1,-1 1,-1 4.4375,-1.1875 z"
       fill="#50b4e7"
       transform="translate(638.4375,498.8125)"
       id="path2515" />
    <path
       d="M 0,0 C 2,2 2,2 2.3125,4.9375 2,8 2,8 0.875,9.9375 -1,11 -1,11 -4.0625,10.9375 -7,10 -7,10 -8.4375,8.25 -9.1329934,5.4680266 -8.8807078,3.7155158 -8,1 -5.2374996,-0.38125018 -3.052689,-0.19079306 0,0 Z"
       fill="#4eb3e6"
       transform="translate(672,450)"
       id="path2517" />
    <path
       d="m 0,0 c 3.8881579,3.2401316 3.8881579,3.2401316 4.625,6.1875 -0.09788,4.386794 -0.5344272,7.301641 -3,11 -0.66,-0.33 -1.32,-0.66 -2,-1 0.66,-0.99 1.32,-1.98 2,-3 C 2.2837354,7.5475045 2.2837354,7.5475045 -0.1875,2.75 -4.1490708,-0.07969342 -7.6141704,-0.22291634 -12.375,0.1875 c -3.145432,1.0486754 -3.145432,1.0486754 -5,4 -0.418325,4.0330777 -0.285801,7.960682 0,12 -2.792826,-2.399156 -2.984078,-2.878593 -3.5,-6.8125 0.178477,-4.8456485 2.048214,-6.8926137 5.5,-10.1875 C -10.659269,-4.5525626 -4.7916833,-2.5733114 0,0 Z"
       fill="#2077b1"
       transform="translate(757.375,400.8125)"
       id="path2519" />
    <path
       d="m 0,0 c 0,3.8641479 -1.4661629,6.4849566 -3,10 0,0.66 0,1.32 0,2 1.65,0 3.3,0 5,0 -0.33,0.99 -0.66,1.98 -1,3 0,0.99 0,1.98 0,3 0.66,0.33 1.32,0.66 2,1 -1.32,0.33 -2.64,0.66 -4,1 1.49097658,3.795213 3.7570085,5.610427 7,8 C 1.1659275,27.585651 -0.89537674,25.62206 -4,22 -5.7359607,16.792118 -6.2668419,10.074971 -4.140625,4.9140625 -2.9254344,3.108888 -1.5387571,1.5387571 0,0 Z"
       fill="#1477b6"
       transform="translate(369,282)"
       id="path2521" />
    <path
       d="m 0,0 c 2.5,0.25 2.5,0.25 4.5,2.25 0.3125,3 0.3125,3 0,6 -3,2 -3,2 -5.6875,1.625 C -1.950625,9.66875 -2.71375,9.4625 -3.5,9.25 c -0.625,-3.375 -0.625,-3.375 -1,-7 2,-2 2,-2 4.5,-2.25 z"
       fill="#50b5e8"
       transform="translate(684.5,482.75)"
       id="path2523" />
    <path
       d="M 0,0 C 4.5555556,0.55555556 4.5555556,0.55555556 6,2 6.1875,4.9375 6.1875,4.9375 6,8 5.34,8.66 4.68,9.32 4,10 0.70285207,9.6702852 -0.6226839,9.3773161 -3,7 -2.6702852,3.7028521 -2.3773161,2.3773161 0,0 Z"
       fill="#4eb2e5"
       transform="translate(655,482)"
       id="path2525" />
    <path
       d="m 0,0 c 1.2375,0.1546875 1.2375,0.1546875 2.5,0.3125 2,3 2,3 1.625,5.6875 C 3.91875,6.763125 3.7125,7.52625 3.5,8.3125 c -2.875,0.625 -2.875,0.625 -6,1 -2,-2 -2,-2 -2.25,-4.5 C -4.4004757,1.3172575 -3.4755768,0.4344471 0,0 Z"
       fill="#4eb4e6"
       transform="translate(668.5,506.6875)"
       id="path2527" />
    <path
       d="M 0,0 C 0.625,3.375 0.625,3.375 1,7 0.34,7.66 -0.32,8.32 -1,9 -5.5555556,8.4444444 -5.5555556,8.4444444 -7,7 -7.0408078,5.0004164 -7.0425436,2.9995475 -7,1 -4.537212,-0.231394 -2.7204945,-0.07159196 0,0 Z"
       fill="#4fb4e7"
       transform="translate(693,509)"
       id="path2529" />
    <path
       d="M 0,0 C 3.7159919,-0.20086443 4.7720845,-0.1519437 8,2 7.125,6.875 7.125,6.875 6,8 4.0004164,8.0408078 1.9995475,8.0425436 0,8 -1.125,2.25 -1.125,2.25 0,0 Z"
       fill="#50b6e9"
       transform="translate(665,531)"
       id="path2531" />
    <path
       d="M 0,0 C 0.33,0.66 0.66,1.32 1,2 0.109375,3.9179688 0.109375,3.9179688 -1.25,6.1875 -4.1561301,11.218889 -6.4964189,16.111571 -8,21.75 c -0.9648969,3.135915 -1.504177,4.27414 -4,6.25 -0.66,0.66 -1.32,1.32 -2,2 0.653646,-4.873511 2.647357,-8.927358 4.75,-13.3125 0.5375391,-1.132965 0.5375391,-1.132965 1.0859375,-2.288818 C -5.7458783,9.3704025 -3.1443032,4.6181953 0,0 Z"
       fill="#104a7e"
       transform="translate(237,218)"
       id="path2535" />
    <path
       d="m 0,0 c 0.99,0.495 0.99,0.495 2,1 0.8349124,2.7761576 1.545474,5.4917575 2.1875,8.3125 0.2852051,1.159189 0.2852051,1.159189 0.5761719,2.341797 0.1746679,0.74959 0.3493359,1.49918 0.5292968,2.271484 0.2401282,1.027343 0.2401282,1.027343 0.4851075,2.07544 C 6.0273601,18.246422 5.6681835,19.856957 5,22 3.4944046,20.03618 2.1086832,18.217366 1,16 1.66,16 2.32,16 3,16 2.7834375,15.096367 2.566875,14.192734 2.34375,13.261719 2.0653125,12.082227 1.786875,10.902734 1.5,9.6875 1.0823437,7.9298633 1.0823437,7.9298633 0.65625,6.1367187 0,3 0,3 0,0 Z"
       fill="#1b5588"
       transform="translate(817,294)"
       id="path2539" />
    <path
       d="m 0,0 c -1.375,1.5 -1.375,1.5 -3,3 -0.66,0 -1.32,0 -2,0 0,0.99 0,1.98 0,3 C -6.2065625,5.7525 -6.2065625,5.7525 -7.4375,5.5 -9.7284443,4.9680816 -9.7284443,4.9680816 -11,5 -11.99,4.34 -12.98,3.68 -14,3 -12.422747,2.298664 -10.837887,1.614417 -9.25,0.9375 -7.9274219,0.36322266 -7.9274219,0.36322266 -6.578125,-0.22265625 -3.8474369,-1.0460001 -2.6309865,-0.9773992 0,0 Z"
       fill="#0e4b81"
       transform="translate(419,73)"
       id="path2541" />
    <path
       d="M 0,0 C 0.33,0 0.66,0 1,0 1.33,2.31 1.66,4.62 2,7 1.34,7 0.68,7 0,7 c -0.33,6.93 -0.66,13.86 -1,21 -0.33,0 -0.66,0 -1,0 -0.226559,-3.082277 -0.4280346,-6.165702 -0.625,-9.25 -0.064453,-0.872695 -0.1289063,-1.745391 -0.1953125,-2.644531 -0.051563,-0.844336 -0.103125,-1.688672 -0.15625,-2.558594 -0.052368,-0.775049 -0.1047363,-1.550098 -0.1586914,-2.348633 C -2.9796776,8.6697065 -2.2127688,7.2001708 -1,5 -0.62331656,3.3425929 -0.27942455,1.6765473 0,0 Z"
       fill="#14669a"
       transform="translate(406,616)"
       id="path2543" />
    <path
       d="M 0,0 C 0.66,0.33 1.32,0.66 2,1 1.34,1.66 0.68,2.32 0,3 0.66,3.33 1.32,3.66 2,4 2,4.66 2,5.32 2,6 0.7625,6.4125 -0.475,6.825 -1.75,7.25 -5.3081982,8.5685522 -7.541933,10.029836 -10,13 -10.66,12.67 -11.32,12.34 -12,12 -8.04,8.04 -4.08,4.08 0,0 Z"
       fill="#05457d"
       transform="translate(302,136)"
       id="path2545" />
    <path
       d="M 0,0 C 0,0.99 0,1.98 0,3 -0.66,3.66 -1.32,4.32 -2,5 -2.268125,5.78375 -2.53625,6.5675 -2.8125,7.375 -4.2726384,10.602674 -6.1460445,11.97219 -9,14 -9.66,13.34 -10.32,12.68 -11,12 -7.37,8.04 -3.74,4.08 0,0 Z"
       fill="#0c4e83"
       transform="translate(444,301)"
       id="path2547" />
    <path
       d="M 0,0 C 1.485,0.99 1.485,0.99 3,2 3.99,2 4.98,2 6,2 7.3347026,4.6694052 6.5733345,6.1333275 6,9 6.33,9.66 6.66,10.32 7,11 5.1875,10.9375 5.1875,10.9375 3,10 1.1872124,6.5039097 0,3.9601825 0,0 Z"
       fill="#0a558b"
       transform="translate(413,417)"
       id="path2549" />
    <path
       d="M 0,0 C 1.2761719,0.02320313 2.5523438,0.04640625 3.8671875,0.0703125 5.7891797,0.09738281 5.7891797,0.09738281 7.75,0.125 c 1.4811328,0.0348047 1.4811328,0.0348047 2.992188,0.0703125 0,0.33 0,0.66 0,1 -2.3100005,0.33 -4.6200005,0.66 -7.0000005,1 0.33,0.99 0.66,1.98 1,3 -0.66,0 -1.32,0 -2,0 0,0.66 0,1.32 0,2 -0.66,0 -1.32,0 -2,0 0,-1.65 0,-3.3 0,-5 -1.98,0 -3.96,0 -6,0 2,-2 2,-2 5.2578125,-2.1953125 z"
       fill="#136ea9"
       transform="translate(651.25781,208.80469)"
       id="path2551" />
    <path
       d="M 0,0 C 0,3 0,3 -2.1875,5.5625 -4.8792302,7.8953329 -6.6664896,8.9166091 -10,10 c -0.86625,0.391875 -1.7325,0.78375 -2.625,1.1875 C -15,12 -15,12 -18,11 c 0.796641,-0.375117 1.593281,-0.750234 2.414062,-1.1367187 C -9.7870477,7.0626009 -4.69263,4.4319283 0,0 Z"
       fill="#1376b4"
       transform="translate(298,343)"
       id="path2553" />
    <path
       d="M 0,0 C 1.65,1.65 3.3,3.3 5,5 5.66,4.67 6.32,4.34 7,4 6,7 6,7 4,8 3.5304574,11.045813 3.5304574,11.045813 3.375,14.5625 3.3002344,15.760039 3.2254688,16.957578 3.1484375,18.191406 3.0994531,19.118242 3.0504687,20.045078 3,21 2.67,21 2.34,21 2,21 1.9394141,20.154375 1.8788281,19.30875 1.8164062,18.4375 1.3604097,12.264008 0.84179888,6.1331062 0,0 Z"
       fill="#0f72b2"
       transform="translate(300,316)"
       id="path2555" />
    <path
       d="M 0,0 C 4.2687882,0.4743098 6.3151166,2.8071656 9,6 9.8125,8.8125 9.8125,8.8125 10,11 9.649375,10.401875 9.29875,9.80375 8.9375,9.1875 6.2873122,6.1953524 3.7222682,5.4046295 0,4 0,2.68 0,1.36 0,0 Z"
       fill="#0b477d"
       transform="translate(416,120)"
       id="path2557" />
    <path
       d="M 0,0 C 1.5,1.125 1.5,1.125 3,3 3.375,6 3.375,6 3,9 1.5,10.875 1.5,10.875 0,12 -0.66,11.34 -1.32,10.68 -2,10 -1.67,9.67 -1.34,9.34 -1,9 -1,7.68 -1,6.36 -1,5 -1,1 -1,1 0,0 Z"
       fill="#0f5e92"
       transform="translate(389,459)"
       id="path2559" />
    <path
       d="M 0,0 C 1.5625,1.1875 1.5625,1.1875 3,3 2.6875,5.6875 2.6875,5.6875 2,8 c 0.99,0.33 1.98,0.66 3,1 0,0.66 0,1.32 0,2 1.98,0.99 3.96,1.98 6,3 C 9.3125,14.75 9.3125,14.75 7,15 3.6447345,12.843044 1.2104301,10.851369 0,7 -0.0777346,4.6679619 -0.08967728,2.3316094 0,0 Z"
       fill="#0b497f"
       transform="translate(593,627)"
       id="path2561" />
    <path
       d="M 0,0 C 0.66,0.33 1.32,0.66 2,1 1.5900781,1.4705078 1.1801562,1.9410156 0.7578125,2.4257813 -0.05042969,3.359707 -0.05042969,3.359707 -0.875,4.3125 -1.4086719,4.9273828 -1.9423437,5.5422656 -2.4921875,6.1757812 -4.1640447,8.1349821 -4.1640447,8.1349821 -6,11 -6,10.34 -6,9.68 -6,9 -7.65,9.66 -9.3,10.32 -11,11 -7.8131657,6.6659053 -4.1362108,3.3810038 0,0 Z"
       fill="#0a4b83"
       transform="translate(547,457)"
       id="path2563" />
    <path
       d="M 0,0 C 0.33,0.66 0.66,1.32 1,2 -0.98,4.97 -2.96,7.94 -5,11 -5,10.01 -5,9.02 -5,8 -5.3108837,6.3290002 -5.6408033,4.6612846 -6,3 -4,2 -2,1 0,0 Z"
       fill="#1476b4"
       transform="translate(710,514)"
       id="path2565" />
    <path
       d="m 0,0 c 2.375,0.75 2.375,0.75 3.375,1.75 0.040808,1.9995836 0.042544,4.0004525 0,6 -0.33,0 -0.66,0 -1,0 -0.33,-1.65 -0.66,-3.3 -1,-5 -0.99,-0.33 -1.98,-0.66 -3,-1 -0.33,0.99 -0.66,1.98 -1,3 -0.66,0.99 -1.32,1.98 -2,3 -0.6875,-2.3125 -0.6875,-2.3125 -1,-5 C -3.9659358,-0.015107 -3.2281222,-0.30744021 0,0 Z"
       fill="#53b8eb"
       transform="translate(657.625,482.25)"
       id="path2567" />
    <path
       d="m 0,0 c 0,3.3761002 -0.40618198,5.0297028 -2,8 -3.125,2.3125 -3.125,2.3125 -6,4 1.5091296,-4.9801276 4.5566185,-8.2425994 8,-12 z"
       fill="#1374b1"
       transform="translate(654,436)"
       id="path2569" />
    <path
       d="M 0,0 C 0,3 0,3 -0.5,5.1875 -1.1504393,8.8462211 -1.0629661,12.284998 -1,16 -2.5,15 -2.5,15 -4,13 -4.5493667,8.1341807 -4.7349037,6.1023556 -2,2 -1.34,1.34 -0.68,0.68 0,0 Z"
       fill="#1070af"
       transform="translate(741,401)"
       id="path2571" />
    <path
       d="M 0,0 C 0.66,0.33 1.32,0.66 2,1 1.67,1.99 1.34,2.98 1,4 0.01,4.33 -0.98,4.66 -2,5 -3.687497,7.5467225 -3.687497,7.5467225 -5.1875,10.5625 -5.7173047,11.574414 -6.2471094,12.586328 -6.7929687,13.628906 -7.1912891,14.411367 -7.5896094,15.193828 -8,16 -9,13 -9,13 -7.890625,10.625 -7.3492188,9.75875 -6.8078125,8.8925 -6.25,8 -5.7189062,7.13375 -5.1878125,6.2675 -4.640625,5.375 -3.2232918,3.3232415 -1.8317222,1.6772396 0,0 Z"
       fill="#0c65a4"
       transform="translate(632,219)"
       id="path2573" />
    <path
       d="m 0,0 c 1.1594104,3.4782312 0.70820884,5.4589558 0,9 -0.66,0 -1.32,0 -2,0 -0.33,1.98 -0.66,3.96 -1,6 -0.33,0 -0.66,0 -1,0 0.496583,-5.6610459 1.5451068,-9.8767447 4,-15 z"
       fill="#0d4d84"
       transform="translate(413,586)"
       id="path2575" />
    <path
       d="M 0,0 C 2.5195465,2.2589038 3.8733273,4.417897 5.25,7.5 5.6057812,8.2734375 5.9615625,9.046875 6.328125,9.84375 7,12 7,12 6,15 5.01,13.68 4.02,12.36 3,11 2.01,11.495 2.01,11.495 1,12 1.20625,11.13375 1.4125,10.2675 1.625,9.375 2.0404762,5.635714 1.3966628,3.4505786 0,0 Z"
       fill="#0f6dac"
       transform="translate(726,300)"
       id="path2577" />
    <path
       d="M 0,0 C -0.639375,0.28875 -1.27875,0.5775 -1.9375,0.875 -4.1520608,1.8282345 -4.1520608,1.8282345 -5,4 -5.61875,3.814375 -6.2375,3.62875 -6.875,3.4375 -9.0416018,2.7631382 -9.0416018,2.7631382 -11,4 c -0.66,-0.66 -1.32,-1.32 -2,-2 0,-0.66 0,-1.32 0,-2 1.415434,-0.19658808 2.83244,-0.38187546 4.25,-0.5625 0.7889063,-0.10441406 1.5778125,-0.20882812 2.390625,-0.31640625 C -3.9946713,-1.0002735 -2.2488963,-0.69633257 0,0 Z"
       fill="#14679a"
       transform="translate(597,659)"
       id="path2579" />
    <path
       d="M 0,0 C 2.75,-0.25 2.75,-0.25 6,0 8.375,2 8.375,2 10,4 7.69,4 5.38,4 3,4 2.67,3.01 2.34,2.02 2,1 1.34,0.67 0.68,0.34 0,0 Z"
       fill="#0f6197"
       transform="translate(654,171)"
       id="path2587" />
    <path
       d="M 0,0 C 0.99,0.33 1.98,0.66 3,1 1.4169423,5.2742558 -1.505684,7.2653179 -5,10 -3.8482665,7.5319995 -2.9521644,5.9521644 -1,4 -1,3.01 -1,2.02 -1,1 -0.67,0.67 -0.34,0.34 0,0 Z"
       fill="#0b4b81"
       transform="translate(467,314)"
       id="path2589" />
    <path
       d="M 0,0 C -0.78375,0.4125 -1.5675,0.825 -2.375,1.25 -5.0589166,3.0392777 -5.8809895,4.0498814 -7,7 -7.33,6.01 -7.66,5.02 -8,4 -10.015084,3.266762 -10.015084,3.266762 -12,3 -10.37899,2.303145 -8.7530393,1.6177714 -7.125,0.9375 -6.2200781,0.55464844 -5.3151562,0.17179688 -4.3828125,-0.22265625 -2,-1 -2,-1 0,0 Z"
       fill="#1272b1"
       transform="translate(340,223)"
       id="path2591" />
    <path
       d="M 0,0 C 1.32,0 2.64,0 4,0 4.66,1.65 5.32,3.3 6,5 5.01,5.495 5.01,5.495 4,6 1.875,5.0625 1.875,5.0625 0,4 0,2.68 0,1.36 0,0 Z"
       fill="#4aafe1"
       transform="translate(666,533)"
       id="path2593" />
    <path
       d="M 0,0 C 1.0315963,3.0947888 0.97482862,4.5263139 0.5625,7.6875 0.46066406,8.4957422 0.35882813,9.3039844 0.25390625,10.136719 0.17011719,10.751602 0.08632813,11.366484 0,12 -0.66,12 -1.32,12 -2,12 -2.1783551,7.4519436 -1.99785,4.1205746 0,0 Z"
       fill="#115184"
       transform="translate(411,356)"
       id="path2595" />
    <path
       d="M 0,0 C 0.66,0.66 1.32,1.32 2,2 -0.31,2 -2.62,2 -5,2 -5.33,2.66 -5.66,3.32 -6,4 -7.32,3.34 -8.64,2.68 -10,2 -6.3265323,-0.44897847 -4.336436,-0.31537716 0,0 Z"
       fill="#126eac"
       transform="translate(357,183)"
       id="path2599" />
    <path
       d="M 0,0 C 0.33,0.66 0.66,1.32 1,2 0.00390625,4.3828125 0.00390625,4.3828125 -1.4375,7.125 -1.9105859,8.0350781 -2.3836719,8.9451563 -2.8710938,9.8828125 -3.2436328,10.581484 -3.6161719,11.280156 -4,12 -5.2554156,8.2337533 -4.3706196,6.6281107 -3,3 c 0.66,0 1.32,0 2,0 0.33,-0.99 0.66,-1.98 1,-3 z"
       fill="#0e679b"
       transform="translate(796,509)"
       id="path2603" />
    <path
       d="M 0,0 C 0.33,0.99 0.66,1.98 1,3 -0.25,4.5625 -0.25,4.5625 -2,6 -4.1875,5.6875 -4.1875,5.6875 -6,5 -2.25,1.125 -2.25,1.125 0,0 Z"
       fill="#0b5388"
       transform="translate(520,478)"
       id="path2605" />
    <path
       d="M 0,0 C 1.9078584,3.1749094 2.1609041,5.1058521 1.625,8.75 1.5141406,9.5492188 1.4032812,10.348437 1.2890625,11.171875 1.1936719,11.775156 1.0982813,12.378438 1,13 -0.9078584,9.8250906 -1.1609041,7.8941479 -0.625,4.25 -0.51414062,3.4507813 -0.40328125,2.6515625 -0.2890625,1.828125 -0.19367187,1.2248437 -0.09828125,0.6215625 0,0 Z"
       fill="#1d6597"
       transform="translate(614,359)"
       id="path2607" />
    <path
       d="M 0,0 C 1,2 1,2 0.44140625,4.1640625 0.15136719,4.9761719 -0.13867188,5.7882812 -0.4375,6.625 -0.72496094,7.4422656 -1.0124219,8.2595313 -1.3085937,9.1015625 -1.5367578,9.7280469 -1.7649219,10.354531 -2,11 -2.33,11 -2.66,11 -3,11 -3.3692308,4.6 -3.3692308,4.6 -1.5,1.5625 -1.005,1.046875 -0.51,0.53125 0,0 Z"
       fill="#094479"
       transform="translate(446,137)"
       id="path2609" />
    <path
       d="M 0,0 C 0.66,0.33 1.32,0.66 2,1 1.01,1.66 0.02,2.32 -1,3 -1.33,3.99 -1.66,4.98 -2,6 -3.98,6 -5.96,6 -8,6 -5.5408049,3.3651481 -3.4222759,1.2548345 0,0 Z"
       fill="#0f5085"
       transform="translate(665,624)"
       id="path2615" />
    <path
       d="M 0,0 C 2.475,0.99 2.475,0.99 5,2 4.67,2.99 4.34,3.98 4,5 4.3893286,7.1425579 4.3893286,7.1425579 5,9 1.9083091,6.4704347 1.0906867,3.7754539 0,0 Z"
       fill="#0a4f84"
       transform="translate(420,433)"
       id="path2617" />
    <path
       d="M 0,0 C 4.7757634,0.4682121 8.0447635,1.24332 12,4 9.3333581,5.3333209 7.833197,4.6710203 5,4 5,3.34 5,2.68 5,2 3.35,1.67 1.7,1.34 0,1 0,0.67 0,0.34 0,0 Z"
       fill="#0b69a9"
       transform="translate(663,210)"
       id="path2619" />
    <path
       d="M 0,0 C 3.8066698,1.4439092 5.2660258,3.349528 7,7 6.67,7.66 6.34,8.32 6,9 4,7 2,5 0,3 0,2.01 0,1.02 0,0 Z"
       fill="#0c558a"
       transform="translate(776,203)"
       id="path2621" />
    <path
       d="m 0,0 c 1.11375,0.185625 1.11375,0.185625 2.25,0.375 -2.77280706,3.0808967 -5.0632636,4.6877545 -9,6 C -3.4269231,0.46730769 -3.4269231,0.46730769 0,0 Z"
       fill="#0a487e"
       transform="translate(351.75,127.625)"
       id="path2623" />
    <path
       d="M 0,0 C 0.89674777,2.5108938 1.1317267,3.6453511 0.1875,6.1875 -1,8 -1,8 -3,9 -2.5020163,5.2651222 -2.1250824,3.1876237 0,0 Z"
       fill="#1172b2"
       transform="translate(622,491)"
       id="path2627" />
    <path
       d="M 0,0 C 0.99,0 1.98,0 3,0 2.34,2.97 1.68,5.94 1,9 -1,6 -1,6 -0.625,2.8125 -0.41875,1.884375 -0.2125,0.95625 0,0 Z"
       fill="#196396"
       transform="translate(793,454)"
       id="path2629" />
    <path
       d="M 0,0 C 0.99,0 1.98,0 3,0 1.8132393,4.1080177 1.1055167,5.8944833 -2,9 -1.34,6.03 -0.68,3.06 0,0 Z"
       fill="#156598"
       transform="translate(422,565)"
       id="path2631" />
    <path
       d="M 0,0 C 0.99,0.66 1.98,1.32 3,2 2.6875,3.875 2.6875,3.875 2,6 1.01,6.66 0.02,7.32 -1,8 -1.33,7.01 -1.66,6.02 -2,5 -1.34,5 -0.68,5 0,5 0,3.35 0,1.7 0,0 Z"
       fill="#0f669a"
       transform="translate(577,460)"
       id="path2633" />
    <path
       d="M 0,0 C 0.99,0.33 1.98,0.66 3,1 2.01,1.495 2.01,1.495 1,2 0.690625,2.66 0.38125,3.32 0.0625,4 -1,6 -1,6 -4,7 -3.4362859,3.730458 -2.5003773,2.1742412 0,0 Z"
       fill="#07427a"
       transform="translate(472,421)"
       id="path2635" />
    <path
       d="M 0,0 C 0.33,0.66 0.66,1.32 1,2 1.66,2.33 2.32,2.66 3,3 1.02,4.98 -0.96,6.96 -3,9 -3.66,8.67 -4.32,8.34 -5,8 -4.360625,7.236875 -3.72125,6.47375 -3.0625,5.6875 -0.85767219,3.1175329 -0.85767219,3.1175329 0,0 Z"
       fill="#06447b"
       transform="translate(476,305)"
       id="path2637" />
    <path
       d="M 0,0 C 0.66,0.33 1.32,0.66 2,1 0.35,2.98 -1.3,4.96 -3,7 -3.99,6.01 -4.98,5.02 -6,4 -5.38125,3.71125 -4.7625,3.4225 -4.125,3.125 -1.8667423,2.0627996 -1.8667423,2.0627996 0,0 Z"
       fill="#13649a"
       transform="translate(701,599)"
       id="path2639" />
    <path
       d="M 0,0 C 2.97,0.33 5.94,0.66 9,1 7.68,1.33 6.36,1.66 5,2 4.67,2.66 4.34,3.32 4,4 1,2 1,2 0,0 Z"
       fill="#064177"
       transform="translate(580,66)"
       id="path2641" />
  </g>
</svg>
